<svg id="Layer_1" data-name="Layer 1" xmlns="http://www.w3.org/2000/svg" viewBox="0 0 80 80"><defs><style>.cls-1{fill:#f6a823;}.cls-2{fill:#fff;}</style></defs><title>git2</title><path class="cls-1" d="M0,0,36.8,36.8h4.8l3.84,8.64L80,80V0Z"/><path class="cls-2" d="M41,34.88c-4.8-2.88-2.88-6.08-2.88-6.08a6.07,6.07,0,0,0,.64-3.52c-.32-2.24,1-.64,1-.64a4,4,0,0,1,.64,3.52,4,4,0,0,0,2.88,5.12"/><path class="cls-2" d="M36.8,36.8s1.28.64,1.6,0l4.48-4.48a5.11,5.11,0,0,1,2.56-1c-2.56-3.52-4.8-7.68.64-13.12A6.82,6.82,0,0,1,51.2,16,6.68,6.68,0,0,1,55,12.48s1.6,1,2.24,5.12a15,15,0,0,1,3.84,2.88A15,15,0,0,1,64,24.32c4.48,1,5.44,2.24,5.44,2.24-1.28,2.56-2.88,3.52-3.52,3.52a6.82,6.82,0,0,1-2.24,5.12c-5.12,5.12-9.6,3.2-13.12.64A4.91,4.91,0,0,1,49,39.36l-3.84,3.52c-.32.32.32,1.6.32,1.6Z"/></svg>