<?xml version="1.0" encoding="utf-8"?>
<!-- Generator: Adobe Illustrator 21.1.0, SVG Export Plug-In . SVG Version: 6.00 Build 0)  -->
<svg version="1.1" xmlns="http://www.w3.org/2000/svg" xmlns:xlink="http://www.w3.org/1999/xlink" x="0px" y="0px"
	 viewBox="0 0 512 512" style="enable-background:new 0 0 512 512;" xml:space="preserve">
<style type="text/css">
	.st0{fill:#F6A823;}
	.st1{fill:#FFFFFF;}
</style>
<g id="Layer_2">
	<rect class="st0" width="512" height="512"/>
</g>
<g id="Layer_3">
	<rect x="69" y="63" class="st1" width="376" height="376"/>
</g>
<g id="Capa_1">
	<g>
		<g>
			<path class="st0" d="M101.8,233.8c0,4.9,1.3,9.2,3.9,12.9c2.6,3.7,5.8,6.4,9.8,8.1c0.1,0,0.2,0.1,0.3,0.1l11,6
				c3.9,2.1,2.5,8.2-2,8.2c0,0-0.1,0-0.1,0c-9.8,0-18.1-3.4-25-10.3s-10.3-15.2-10.3-25s3.4-18,10.3-24.8c6.9-6.7,15.2-10.1,25-10.1
				c8.3,0,15.7,2.7,22.2,8c3,2.5,5.5,5.3,7.5,8.4c2.4,3.8-1.9,8.3-5.8,6.1l-10.9-6.1c-4-2.6-8.3-3.9-12.9-3.9
				c-6.3,0-11.7,2.2-16.2,6.5C104,222.2,101.8,227.5,101.8,233.8z M269.4,279c9.8,0,18,3.4,24.8,10.3c6.7,6.9,10.1,15.2,10.1,25
				c0,9.8-3.4,18-10.1,24.8c-6.7,6.7-15,10.1-24.8,10.1c-8.6,0-16.2-2.7-22.6-8c-3.1-2.6-5.6-5.5-7.6-8.7c-2.3-3.8,2-8.2,5.9-6.1
				l11.2,6.3c0.1,0.1,0.3,0.2,0.4,0.3c3.4,2.5,7.7,3.7,12.7,3.7c6.3,0,11.6-2.2,15.9-6.5c4.3-4.3,6.5-9.6,6.5-15.9
				c0-4.9-1.3-9.2-3.9-12.9c-2.6-3.7-5.8-6.4-9.8-8.1c-0.1,0-0.2-0.1-0.3-0.1l-10.8-6c-3.9-2.2-2.4-8.1,2-8.2
				C269.1,279,269.2,279,269.4,279z M371.4,183.9c7.5,0,13.9,2.7,19.4,8.2c5.5,5.5,8.2,11.9,8.2,19.4s-2.7,13.9-8.2,19.2
				s-11.9,8-19.4,8c-7.5,0-13.9-2.7-19.2-8c-5.3-5.3-8-11.7-8-19.2s2.7-13.9,8-19.4C357.6,186.6,364,183.9,371.4,183.9z
				 M371.4,253.2c11.8,0,21.8-4,29.9-12.1c8.2-8,12.3-17.9,12.3-29.7s-4.1-21.8-12.3-29.9c-8.2-8.2-18.2-12.3-29.9-12.3
				c-5.7,0-11.1,1.1-16.1,3.2c-5,2.2-9.5,5.2-13.4,9c-3.9,3.9-6.9,8.4-9,13.6c-2.2,5.2-3.2,10.6-3.2,16.4c0,5.7,1.1,11.2,3.2,16.4
				c2.2,5.2,5.2,9.6,9,13.4c3.9,3.7,8.3,6.7,13.4,8.8C360.3,252.1,365.7,253.2,371.4,253.2z M371.4,273c8.6,0,16.7-1.6,24.1-4.7
				c7.5-3.2,14-7.5,19.6-13.1c5.6-5.6,10-12.1,13.4-19.6c3.3-7.5,5-15.5,5-24.1s-1.7-16.7-5-24.1c-3.3-7.5-7.8-14-13.4-19.6
				c-5.6-5.6-12.1-10-19.6-13.4c-7.5-3.3-15.5-5-24.1-5c-8.3,0-16.2,1.6-23.7,4.7c-7.5,3.2-13.9,7.5-19.4,12.9
				c-5.5,5.5-9.8,11.9-13.1,19.4c-3.1,7.1-4.9,14.6-5.3,22.4c0,0.8-0.3,1.6-0.8,2.3l-39.3,55.4h-0.4c-7.8,0-15.3,1.9-22.4,5.7
				c-1.3,0.7-3,0.7-4.3-0.1l-68.8-41.1c-1.1-0.7-1.9-1.8-2.1-3.2c-1.2-9.5-5.1-17.9-11.6-25.3c-7-7.9-15.9-12.8-26.7-14.8
				c-0.1,0-0.2,0-0.4-0.1c-6.5-0.8-12.8-0.5-18.8,0.9c-6,1.4-11.5,3.9-16.4,7.5c-4.9,3.6-9,8-12.3,13.1c-3.3,5.2-5.4,10.9-6.2,17.2
				c-1.1,6.3-0.9,12.5,0.6,18.5c1.6,6,4.1,11.5,7.5,16.4c3.4,4.9,7.8,9,12.9,12.3c5.2,3.3,10.9,5.5,17.2,6.7c4.6,0.9,9,0.9,13.4,0.2
				c3.7-0.6,7.3-1.5,10.8-2.6c1.1-0.4,2.4-0.2,3.4,0.4l74.8,41.9c1.1,0.6,1.9,1.8,2.2,3.1c1.8,10.9,6.8,20.1,15.2,27.5
				c8.9,7.9,19.5,11.8,31.9,11.8c6.6,0,12.8-1.3,18.5-3.9s10.8-6,15.1-10.3c4.3-4.3,7.8-9.3,10.3-15.1c2.3-5.2,3.6-10.7,3.8-16.6
				c0-1.3,0.7-2.4,1.7-3.2L371,273L371.4,273L371.4,273z M447.7,52.1c2.9,0,5.3,1,7.3,3c2,2,3,4.5,3,7.3v387.2c0,2.9-1,5.3-3,7.3
				c-2,2-4.5,3-7.3,3H64.3c-2.9,0-5.3-1-7.3-3c-2-2-3-4.5-3-7.3V62.4c0-2.9,1-5.3,3-7.3c2-2,4.5-3,7.3-3H447.7L447.7,52.1z"/>
		</g>
	</g>
</g>
</svg>
